<?xml version="1.0" encoding="utf-8"?>
<svg xmlns="http://www.w3.org/2000/svg" width="2480" height="480" viewBox="0 0 2480 480">
  <style>
    :root {
      --color-A-6: #D5E38D;
      --color-A-5: #C0D651;
      --color-A-4: #71A450;
      --color-A-3: #79A950;
      --color-A-2: #507D49;
      --color-A-1: #4D6928;

      --color-B-6: #F8D94C;
      --color-B-5: #EDC64A;
      --color-B-4: #E0773D;
      --color-B-3: #D64033;
      --color-B-2: #A72D22;
      --color-B-1: #8F211B;

      --color-C-6: #89C7F0;
      --color-C-5: #4FAEEA;
      --color-C-4: #4090D1;
      --color-C-3: #3270B8;
      --color-C-2: #2F56A8;
      --color-C-1: #2C308B;

      --stroke-width-thin: 3;
      --stroke-width-thick: 9px;
    }
  </style>
  <defs>
    <g id="straight-segment">
      <path d="M 20,90 L 160,90" stroke="var(--color-B-1,#888888)" stroke-width="var(--stroke-width-thick,9)" fill="none"/>
      <path d="M 20,75 L 160,75" stroke="var(--color-B-2,#888888)" stroke-width="var(--stroke-width-thick,9)" fill="none"/>
      <path d="M 20,60 L 160,60" stroke="var(--color-B-3,#888888)" stroke-width="var(--stroke-width-thick,9)" fill="none"/>
      <path d="M 20,45 L 160,45" stroke="var(--color-B-4,#888888)" stroke-width="var(--stroke-width-thick,9)" fill="none"/>
      <path d="M 20,30 L 160,30" stroke="var(--color-B-5,#888888)" stroke-width="var(--stroke-width-thick,9)" fill="none"/>
      <path d="M 20,15 L 160,15" stroke="var(--color-B-6,#888888)" stroke-width="var(--stroke-width-thick,9)" fill="none"/>
    </g>
  </defs>
  <defs>
    <g id="curved-segment">
      <path d="M 20,150 Q 150,150 150,20" stroke="var(--color-B-1,#888888)" stroke-width="var(--stroke-width-thick,9)" fill="none"/>
      <path d="M 20,135 Q 135,135 135,20" stroke="var(--color-B-2,#888888)" stroke-width="var(--stroke-width-thick,9)" fill="none"/>
      <path d="M 20,120 Q 120,120 120,20" stroke="var(--color-B-3,#888888)" stroke-width="var(--stroke-width-thick,9)" fill="none"/>
      <path d="M 20,105 Q 105,105 105,20" stroke="var(--color-B-4,#888888)" stroke-width="var(--stroke-width-thick,9)" fill="none"/>
      <path d="M 20,90 Q 90,90 90,20" stroke="var(--color-B-5,#888888)" stroke-width="var(--stroke-width-thick,9)" fill="none"/>
      <path d="M 20,75 Q 75,75 75,20" stroke="var(--color-B-6,#888888)" stroke-width="var(--stroke-width-thick,9)" fill="none"/>
    </g>
  </defs>
  <g style="transform-origin: 595.497px 489.016px;">
    <g transform="matrix(0.674257, 0, 0, 0.674257, 150.337524, 272.278961)" style="">
      <path d="M 20,150 Q 150,150 150,20" stroke="var(--color-B-6,#888888)" stroke-width="var(--stroke-width-thick,9)" fill="none" style="stroke-linecap: round; vector-effect: non-scaling-stroke;"/>
      <path d="M 20,135 Q 135,135 135,20" stroke="var(--color-B-5,#888888)" stroke-width="var(--stroke-width-thick,9)" fill="none" style="stroke-linecap: round; vector-effect: non-scaling-stroke;"/>
      <path d="M 20,120 Q 120,120 120,20" stroke="var(--color-B-4,#888888)" stroke-width="var(--stroke-width-thick,9)" fill="none" style="stroke-linecap: round; vector-effect: non-scaling-stroke;"/>
      <path d="M 20,105 Q 105,105 105,20" stroke="var(--color-B-3,#888888)" stroke-width="var(--stroke-width-thick,9)" fill="none" style="stroke-linecap: round; vector-effect: non-scaling-stroke;"/>
      <path d="M 20,90 Q 90,90 90,20" stroke="var(--color-B-2,#888888)" stroke-width="var(--stroke-width-thick,9)" fill="none" style="stroke-linecap: round; vector-effect: non-scaling-stroke;"/>
      <path d="M 20,75 Q 75,75 75,20" stroke="var(--color-B-1,#888888)" stroke-width="var(--stroke-width-thick,9)" fill="none" style="stroke-linecap: round; vector-effect: non-scaling-stroke;"/>
    </g>
    <g transform="matrix(-0.674257, 0, 0, -0.674257, 159.733505, 77.300369)" style="transform-origin: 85px 85px;">
      <path d="M 20,150 Q 150,150 150,20" stroke="var(--color-B-1,#888888)" stroke-width="var(--stroke-width-thick,9)" fill="none" style="stroke-linecap: round; vector-effect: non-scaling-stroke;"/>
      <path d="M 20,135 Q 135,135 135,20" stroke="var(--color-B-2,#888888)" stroke-width="var(--stroke-width-thick,9)" fill="none" style="stroke-linecap: round; vector-effect: non-scaling-stroke;"/>
      <path d="M 20,120 Q 120,120 120,20" stroke="var(--color-B-3,#888888)" stroke-width="var(--stroke-width-thick,9)" fill="none" style="stroke-linecap: round; vector-effect: non-scaling-stroke;"/>
      <path d="M 20,105 Q 105,105 105,20" stroke="var(--color-B-4,#888888)" stroke-width="var(--stroke-width-thick,9)" fill="none" style="stroke-linecap: round; vector-effect: non-scaling-stroke;"/>
      <path d="M 20,90 Q 90,90 90,20" stroke="var(--color-B-5,#888888)" stroke-width="var(--stroke-width-thick,9)" fill="none" style="stroke-linecap: round; vector-effect: non-scaling-stroke;"/>
      <path d="M 20,75 Q 75,75 75,20" stroke="var(--color-B-6,#888888)" stroke-width="var(--stroke-width-thick,9)" fill="none" style="stroke-linecap: round; vector-effect: non-scaling-stroke;"/>
    </g>
    <g transform="matrix(-0.674257, 0, 0, -0.674257, -37.014435, 280.289673)" style="transform-origin: 85px 85px;">
      <path d="M 20,150 Q 150,150 150,20" stroke="var(--color-B-1,#888888)" stroke-width="var(--stroke-width-thick,9)" fill="none" style="stroke-linecap: round; vector-effect: non-scaling-stroke;"/>
      <path d="M 20,135 Q 135,135 135,20" stroke="var(--color-B-2,#888888)" stroke-width="var(--stroke-width-thick,9)" fill="none" style="stroke-linecap: round; vector-effect: non-scaling-stroke;"/>
      <path d="M 20,120 Q 120,120 120,20" stroke="var(--color-B-3,#888888)" stroke-width="var(--stroke-width-thick,9)" fill="none" style="stroke-linecap: round; vector-effect: non-scaling-stroke;"/>
      <path d="M 20,105 Q 105,105 105,20" stroke="var(--color-B-4,#888888)" stroke-width="var(--stroke-width-thick,9)" fill="none" style="stroke-linecap: round; vector-effect: non-scaling-stroke;"/>
      <path d="M 20,90 Q 90,90 90,20" stroke="var(--color-B-5,#888888)" stroke-width="var(--stroke-width-thick,9)" fill="none" style="stroke-linecap: round; vector-effect: non-scaling-stroke;"/>
      <path d="M 20,75 Q 75,75 75,20" stroke="var(--color-B-6,#888888)" stroke-width="var(--stroke-width-thick,9)" fill="none" style="stroke-linecap: round; vector-effect: non-scaling-stroke;"/>
    </g>
    <g transform="matrix(-5.747621, 0, 0, -0.674257, 723.501099, 290.833191)" style="transform-origin: 90px 52.5px;">
      <path d="M 88.977 90 L 160 90" stroke="var(--color-B-1,#888888)" stroke-width="var(--stroke-width-thick,9)" fill="none" style="stroke-linecap: round; vector-effect: non-scaling-stroke;"/>
      <path d="M 85.696 75 L 160 75" stroke="var(--color-B-2,#888888)" stroke-width="var(--stroke-width-thick,9)" fill="none" style="stroke-linecap: round; vector-effect: non-scaling-stroke;"/>
      <path d="M 20,60 L 160,60" stroke="var(--color-B-3,#888888)" stroke-width="var(--stroke-width-thick,9)" fill="none" style="stroke-linecap: round; vector-effect: non-scaling-stroke;"/>
      <path d="M 68.003 45 L 160 45" stroke="var(--color-B-4,#888888)" stroke-width="var(--stroke-width-thick,9)" fill="none" style="stroke-linecap: round; vector-effect: non-scaling-stroke;"/>
      <path d="M 73.207 30 L 160 30" stroke="var(--color-B-5,#888888)" stroke-width="var(--stroke-width-thick,9)" fill="none" style="stroke-linecap: round; vector-effect: non-scaling-stroke;"/>
      <path d="M 58.761 15 L 160 15" stroke="var(--color-B-6,#888888)" stroke-width="var(--stroke-width-thick,9)" fill="none" style="stroke-linecap: round; vector-effect: non-scaling-stroke;"/>
    </g>
    <g transform="matrix(0, 5.747621, -0.674257, 0, -60.556496, 758.911194)" style="transform-origin: 90px 52.5px;">
      <path d="M 20,90 L 160,90" stroke="var(--color-B-1,#888888)" stroke-width="var(--stroke-width-thick,9)" fill="none" style="stroke-linecap: round; vector-effect: non-scaling-stroke;"/>
      <path d="M 20,75 L 160,75" stroke="var(--color-B-2,#888888)" stroke-width="var(--stroke-width-thick,9)" fill="none" style="stroke-linecap: round; vector-effect: non-scaling-stroke;"/>
      <path d="M 20,60 L 160,60" stroke="var(--color-B-3,#888888)" stroke-width="var(--stroke-width-thick,9)" fill="none" style="stroke-linecap: round; vector-effect: non-scaling-stroke;"/>
      <path d="M 20,45 L 160,45" stroke="var(--color-B-4,#888888)" stroke-width="var(--stroke-width-thick,9)" fill="none" style="stroke-linecap: round; vector-effect: non-scaling-stroke;"/>
      <path d="M 20,30 L 160,30" stroke="var(--color-B-5,#888888)" stroke-width="var(--stroke-width-thick,9)" fill="none" style="stroke-linecap: round; vector-effect: non-scaling-stroke;"/>
      <path d="M 20,15 L 160,15" stroke="var(--color-B-6,#888888)" stroke-width="var(--stroke-width-thick,9)" fill="none" style="stroke-linecap: round; vector-effect: non-scaling-stroke;"/>
    </g>
    <g transform="matrix(0, -0.577733, -0.674257, 0, 136.191437, 193.097107)" style="transform-origin: 90px 52.5px;">
      <path d="M 20,90 L 160,90" stroke="var(--color-B-1,#888888)" stroke-width="var(--stroke-width-thick,9)" fill="none" style="stroke-linecap: round; vector-effect: non-scaling-stroke;"/>
      <path d="M 20,75 L 160,75" stroke="var(--color-B-2,#888888)" stroke-width="var(--stroke-width-thick,9)" fill="none" style="stroke-linecap: round; vector-effect: non-scaling-stroke;"/>
      <path d="M 20,60 L 160,60" stroke="var(--color-B-3,#888888)" stroke-width="var(--stroke-width-thick,9)" fill="none" style="stroke-linecap: round; vector-effect: non-scaling-stroke;"/>
      <path d="M 20,45 L 160,45" stroke="var(--color-B-4,#888888)" stroke-width="var(--stroke-width-thick,9)" fill="none" style="stroke-linecap: round; vector-effect: non-scaling-stroke;"/>
      <path d="M 20,30 L 160,30" stroke="var(--color-B-5,#888888)" stroke-width="var(--stroke-width-thick,9)" fill="none" style="stroke-linecap: round; vector-effect: non-scaling-stroke;"/>
      <path d="M 20,15 L 160,15" stroke="var(--color-B-6,#888888)" stroke-width="var(--stroke-width-thick,9)" fill="none" style="stroke-linecap: round; vector-effect: non-scaling-stroke;"/>
    </g>
    <g transform="matrix(0, -0.542593, 0.67425, 0, 314.464844, 291.875946)" style="">
      <path d="M 20,90 L 160,90" stroke="var(--color-B-1,#888888)" stroke-width="var(--stroke-width-thick,9)" fill="none" style="stroke-linecap: round; vector-effect: non-scaling-stroke;"/>
      <path d="M 20,75 L 160,75" stroke="var(--color-B-2,#888888)" stroke-width="var(--stroke-width-thick,9)" fill="none" style="stroke-linecap: round; vector-effect: non-scaling-stroke;"/>
      <path d="M 20,60 L 160,60" stroke="var(--color-B-3,#888888)" stroke-width="var(--stroke-width-thick,9)" fill="none" style="stroke-linecap: round; vector-effect: non-scaling-stroke;"/>
      <path d="M 20,45 L 160,45" stroke="var(--color-B-4,#888888)" stroke-width="var(--stroke-width-thick,9)" fill="none" style="stroke-linecap: round; vector-effect: non-scaling-stroke;"/>
      <path d="M 20,30 L 160,30" stroke="var(--color-B-5,#888888)" stroke-width="var(--stroke-width-thick,9)" fill="none" style="stroke-linecap: round; vector-effect: non-scaling-stroke;"/>
      <path d="M 20,15 L 160,15" stroke="var(--color-B-6,#888888)" stroke-width="var(--stroke-width-thick,9)" fill="none" style="stroke-linecap: round; vector-effect: non-scaling-stroke;"/>
    </g>
    <g transform="matrix(0, -0.674257, 0.674257, 0, 246.35054, 77.300369)" style="transform-origin: 85px 85px;">
      <path d="M 20,150 Q 150,150 150,20" stroke="var(--color-B-1)" stroke-width="var(--stroke-width-thick, #333)" fill="none" style="stroke-linecap: round; vector-effect: non-scaling-stroke;"/>
      <path d="M 20,135 Q 135,135 135,20" stroke="var(--color-B-2,#888888)" stroke-width="var(--stroke-width-thick,9)" fill="none" style="stroke-linecap: round; vector-effect: non-scaling-stroke;"/>
      <path d="M 20,120 Q 120,120 120,20" stroke="var(--color-B-3,#888888)" stroke-width="var(--stroke-width-thick,9)" fill="none" style="stroke-linecap: round; vector-effect: non-scaling-stroke;"/>
      <path d="M 20,105 Q 105,105 105,20" stroke="var(--color-B-4,#888888)" stroke-width="var(--stroke-width-thick,9)" fill="none" style="stroke-linecap: round; vector-effect: non-scaling-stroke;"/>
      <path d="M 20,90 Q 90,90 90,20" stroke="var(--color-B-5,#888888)" stroke-width="var(--stroke-width-thick,9)" fill="none" style="stroke-linecap: round; vector-effect: non-scaling-stroke;"/>
      <path d="M 20,75 Q 75,75 75,20" stroke="var(--color-B-6,#888888)" stroke-width="var(--stroke-width-thick,9)" fill="none" style="stroke-linecap: round; vector-effect: non-scaling-stroke;"/>
    </g>
    <g transform="matrix(0, 0.674257, -0.674257, 0, 283.352722, 239.791977)" style="transform-origin: 85px 85px;">
      <path d="M 20,150 Q 150,150 150,20" stroke="var(--color-B-6,#888888)" stroke-width="var(--stroke-width-thick,9)" fill="none" style="stroke-linecap: round; vector-effect: non-scaling-stroke;"/>
      <path d="M 20,135 Q 135,135 135,20" stroke="var(--color-B-5,#888888)" stroke-width="var(--stroke-width-thick,9)" fill="none" style="stroke-linecap: round; vector-effect: non-scaling-stroke;"/>
      <path d="M 20,120 Q 120,120 120,20" stroke="var(--color-B-4,#888888)" stroke-width="var(--stroke-width-thick,9)" fill="none" style="stroke-linecap: round; vector-effect: non-scaling-stroke;"/>
      <path d="M 20,105 Q 105,105 105,20" stroke="var(--color-B-3,#888888)" stroke-width="var(--stroke-width-thick,9)" fill="none" style="stroke-linecap: round; vector-effect: non-scaling-stroke;"/>
      <path d="M 20,90 Q 90,90 90,20" stroke="var(--color-B-2,#888888)" stroke-width="var(--stroke-width-thick,9)" fill="none" style="stroke-linecap: round; vector-effect: non-scaling-stroke;"/>
      <path d="M 20,75 Q 75,75 75,20" stroke="var(--color-B-1,#888888)" stroke-width="var(--stroke-width-thick,9)" fill="none" style="stroke-linecap: round; vector-effect: non-scaling-stroke;"/>
    </g>
    <g transform="matrix(0, -7.638319, -0.674257, 0, 37.981133, 246.469009)" style="transform-origin: 90px 52.5px;">
      <path d="M 20,90 L 160,90" stroke="var(--color-A-1,#888888)" stroke-width="var(--stroke-width-thick,9)" fill="none" style="stroke-linecap: round; vector-effect: non-scaling-stroke;"/>
      <path d="M 20,75 L 160,75" stroke="var(--color-A-2,#888888)" stroke-width="var(--stroke-width-thick,9)" fill="none" style="stroke-linecap: round; vector-effect: non-scaling-stroke;"/>
      <path d="M 20,60 L 160,60" stroke="var(--color-A-3,#888888)" stroke-width="var(--stroke-width-thick,9)" fill="none" style="stroke-linecap: round; vector-effect: non-scaling-stroke;"/>
      <path d="M 20,45 L 160,45" stroke="var(--color-A-4,#888888)" stroke-width="var(--stroke-width-thick,9)" fill="none" style="stroke-linecap: round; vector-effect: non-scaling-stroke;"/>
      <path d="M 20,30 L 160,30" stroke="var(--color-A-5,#888888)" stroke-width="var(--stroke-width-thick,9)" fill="none" style="stroke-linecap: round; vector-effect: non-scaling-stroke;"/>
      <path d="M 20,15 L 160,15" stroke="var(--color-A-6,#888888)" stroke-width="var(--stroke-width-thick,9)" fill="none" style="stroke-linecap: round; vector-effect: non-scaling-stroke;"/>
    </g>
  </g>
</svg>