<?xml version="1.0" encoding="utf-8"?>
<svg xmlns="http://www.w3.org/2000/svg" width="800" height="256" viewBox="0 0 800 256">
  <style>
    :root {
      --color-A-6: #D5E38D;
      --color-A-5: #C0D651;
      --color-A-4: #71A450;
      --color-A-3: #79A950;
      --color-A-2: #507D49;
      --color-A-1: #4D6928;

      --color-B-6: #F8D94C;
      --color-B-5: #EDC64A;
      --color-B-4: #E0773D;
      --color-B-3: #D64033;
      --color-B-2: #A72D22;
      --color-B-1: #8F211B;

      --stroke-width-thin: 3;
      --stroke-width-thick: 9px;
    }
  </style>
  <path d="M 144.702 287.407 L 170.808 287.407 C 212.338 287.407 233.341 266.402 233.341 224.393" stroke="var(--color-B-5,#888888)" fill="none" style="stroke-linecap: round; transform-box: fill-box; transform-origin: 50% 50%; stroke-width: 6px;" transform="matrix(-1, 0, 0, -1, 0.000007, -0.000002)"/>
  <path d="M 158.205 287.407 L 183.44 287.407 C 215.967 287.407 232.47 270.903 232.47 237.896" stroke="var(--color-B-6,#888888)" fill="none" style="stroke-linecap: round; transform-box: fill-box; transform-origin: 50% 50%; stroke-width: 6px;" transform="matrix(-1, 0, 0, -1, 0.000015, 0.000033)"/>
  <path d="M 89.213 287.407 L 116.796 287.407 C 194.333 287.407 233.341 248.398 233.341 170.381" stroke="var(--color-B-1,#888888)" fill="none" style="stroke-linecap: round; transform-box: fill-box; transform-origin: 50% 50%; stroke-width: 6px;" transform="matrix(-1, 0, 0, -1, 0.000004, -0.000009)"/>
  <path d="M 103.498 287.407 L 130.299 287.407 C 198.834 287.407 233.341 252.899 233.341 183.884" stroke="var(--color-B-2,#888888)" fill="none" style="stroke-linecap: round; transform-box: fill-box; transform-origin: 50% 50%; stroke-width: 6px;" transform="matrix(-1, 0, 0, -1, 0.000011, -0.000011)"/>
  <path d="M 117.278 287.407 L 143.802 287.407 C 203.335 287.407 233.341 257.4 233.341 197.387" stroke="var(--color-B-3,#888888)" fill="none" style="stroke-linecap: round; transform-box: fill-box; transform-origin: 50% 50%; stroke-width: 6px;" transform="matrix(-1, 0, 0, -1, -0.000028, -0.000014)"/>
  <path d="M 130.949 287.407 L 157.305 287.407 C 207.836 287.407 233.341 261.901 233.341 210.89" stroke="var(--color-B-4,#888888)" fill="none" style="stroke-linecap: round; transform-box: fill-box; transform-origin: 50% 50%; stroke-width: 6px;" transform="matrix(-1, 0, 0, -1, -0.000009, 0.000045)"/>
  <path d="M 329.401 16.818 L 623.187 16.589 C 656.661 16.359 673.165 32.863 673.06 61.291 C 672.955 134.729 711.963 173.737 787.81 173.737 C 863.655 173.737 902.664 134.729 902.678 57.012 C 902.693 24.305 919.196 7.802 952.203 7.802" stroke="var(--color-B-1,#888888)" fill="none" style="stroke-linecap: round; transform-box: fill-box; transform-origin: 50% 50%; stroke-width: 6px;" transform="matrix(-1, 0, 0, -1, 0.000034, 0.000011)"/>
  <path d="M 329.401 28.921 L 623.549 28.822 C 666.387 28.723 687.392 49.728 687.287 87.158 C 687.182 151.594 721.689 186.101 788.172 186.101 C 854.653 186.101 889.161 151.594 889.175 82.879 C 889.19 41.17 910.194 20.166 952.203 20.166" stroke="var(--color-B-2,#888888)" fill="none" style="stroke-linecap: round; transform-box: fill-box; transform-origin: 50% 50%; stroke-width: 6px;" transform="matrix(-1, 0, 0, -1, 0.000034, 0.000004)"/>
  <path d="M 329.401 41.024 L 623.731 40.747 C 675.753 40.47 701.259 65.976 701.154 112.408 C 701.049 167.842 731.055 197.848 788.354 197.848 C 845.652 197.848 875.659 167.842 875.673 108.129 C 875.688 57.418 901.193 31.913 952.204 31.913" stroke="var(--color-B-3,#888888)" fill="none" style="stroke-linecap: round; transform-box: fill-box; transform-origin: 50% 50%; stroke-width: 6px;" transform="matrix(-1, 0, 0, -1, 0.000014, -0.000007)"/>
  <path d="M 329.401 53.127 L 623.376 52.643 C 684.045 52.159 714.052 82.166 713.947 137.6 C 713.842 184.032 739.347 209.537 787.998 209.537 C 836.65 209.537 862.156 184.032 862.17 133.321 C 862.184 73.608 892.19 43.602 952.203 43.602" stroke="var(--color-B-4,#888888)" fill="none" style="stroke-linecap: round; transform-box: fill-box; transform-origin: 50% 50%; stroke-width: 6px;" transform="matrix(-1, 0, 0, -1, 0.000034, -0.000029)"/>
  <path d="M 329.401 65.23 L 622.823 64.829 C 691.942 64.427 726.45 98.935 726.345 163.37 C 726.24 200.8 747.244 221.805 787.447 221.805 C 827.649 221.805 848.654 200.801 848.668 159.092 C 848.682 90.377 883.189 55.87 952.204 55.87" stroke="var(--color-B-5,#888888)" fill="none" style="stroke-linecap: round; transform-box: fill-box; transform-origin: 50% 50%; stroke-width: 6px;" transform="matrix(-1, 0, 0, -1, 0.000014, 0.000022)"/>
  <path d="M 329.401 77.332 L 622.29 77.303 C 699.878 77.274 738.886 116.283 738.781 189.72 C 738.676 218.148 755.179 234.652 786.913 234.651 C 818.646 234.651 835.15 218.148 835.164 185.441 C 835.178 107.724 874.186 68.716 952.203 68.716" stroke="var(--color-B-6,#888888)" fill="none" style="stroke-linecap: round; transform-box: fill-box; transform-origin: 50% 50%; stroke-width: 6px;" transform="matrix(-1, 0, 0, -1, 0.000034, -0.000012)"/>
  <path d="M -94.093 44.652 L 199.224 44.652" stroke="var(--color-A-1,#888888)" fill="none" style="stroke-linecap: round; transform-box: fill-box; transform-origin: 50% 50%; stroke-width: 6px;" transform="matrix(-1, 0, 0, -1, -0.000005, 0.000006)"/>
  <path d="M -94.093 58.155 L 199.224 58.155" stroke="var(--color-A-2,#888888)" fill="none" style="stroke-linecap: round; transform-box: fill-box; transform-origin: 50% 50%; stroke-width: 6px;" transform="matrix(-1, 0, 0, -1, -0.000005, -0.000002)"/>
  <path d="M -94.093 71.657 L 199.224 71.657" stroke="var(--color-A-3,#888888)" fill="none" style="stroke-linecap: round; transform-box: fill-box; transform-origin: 50% 50%; stroke-width: 6px;" transform="matrix(-1, 0, 0, -1, -0.000005, 0)"/>
  <path d="M -94.093 85.16 L 199.224 85.16" stroke="var(--color-A-4,#888888)" fill="none" style="stroke-linecap: round; transform-box: fill-box; transform-origin: 50% 50%; stroke-width: 6px;" transform="matrix(-1, 0, 0, -1, -0.000005, -0.000006)"/>
  <path d="M -94.093 98.663 L 199.224 98.663" stroke="var(--color-A-5,#888888)" fill="none" style="stroke-linecap: round; transform-box: fill-box; transform-origin: 50% 50%; stroke-width: 6px;" transform="matrix(-1, 0, 0, -1, -0.000005, 0.000003)"/>
  <path d="M -94.093 112.166 L 199.224 112.166" stroke="var(--color-A-6,#888888)" fill="none" style="stroke-linecap: round; transform-box: fill-box; transform-origin: 50% 50%; stroke-width: 6px;" transform="matrix(-1, 0, 0, -1, -0.000005, -0.000014)"/>
  <path d="M 197.801 161.677 C 275.817 161.677 314.826 122.668 314.826 44.652" stroke="var(--color-A-1,#888888)" fill="none" style="stroke-linecap: round; transform-box: fill-box; transform-origin: 50% 50%; stroke-width: 6px;" transform="matrix(0, -1, 1, 0, 0.00002, 0.000026)"/>
  <path d="M 197.801 161.677 C 266.816 161.677 301.323 127.169 301.323 58.154" stroke="var(--color-A-2,#888888)" fill="none" style="stroke-linecap: round; transform-box: fill-box; transform-origin: 50% 50%; stroke-width: 6px;" transform="matrix(0, -1, 1, 0, -0.000001, 0.000019)"/>
  <path d="M 197.801 161.677 C 257.814 161.677 287.82 131.67 287.82 71.657" stroke="var(--color-A-3,#888888)" fill="none" style="stroke-linecap: round; transform-box: fill-box; transform-origin: 50% 50%; stroke-width: 6px;" transform="matrix(0, -1, 1, 0, 0.000009, 0.000012)"/>
  <path d="M 197.801 161.677 C 248.812 161.677 274.317 136.171 274.317 85.16" stroke="var(--color-A-4,#888888)" fill="none" style="stroke-linecap: round; transform-box: fill-box; transform-origin: 50% 50%; stroke-width: 6px;" transform="matrix(0, -1, 1, 0, 0.000003, -0.000012)"/>
  <path d="M 197.801 161.677 C 239.81 161.677 260.814 140.672 260.814 98.663" stroke="var(--color-A-5,#888888)" fill="none" style="stroke-linecap: round; transform-box: fill-box; transform-origin: 50% 50%; stroke-width: 6px;" transform="matrix(0, -1, 1, 0, -0.000009, 0.000004)"/>
  <path d="M 197.801 161.677 C 230.808 161.677 247.311 145.173 247.311 112.166" stroke="var(--color-A-6,#888888)" fill="none" style="stroke-linecap: round; transform-box: fill-box; transform-origin: 50% 50%; stroke-width: 6px;" transform="matrix(0, -1, 1, 0, 0.000008, -0.000011)"/>
  <path d="M 168.105 307.726 L 461.422 307.726" stroke="var(--color-A-1,#888888)" fill="none" style="stroke-linecap: round; transform-box: fill-box; transform-origin: 50% 50%; stroke-width: 6px;" transform="matrix(0, -1, 1.000001, 0, 0.000045, -0.00011)"/>
  <path d="M 154.602 307.726 L 447.919 307.726" stroke="var(--color-A-2,#888888)" fill="none" style="stroke-linecap: round; transform-box: fill-box; transform-origin: 50% 50%; stroke-width: 6px;" transform="matrix(0, -1, 1.000001, 0, 0.000079, -0.00014)"/>
  <path d="M 141.099 307.726 L 434.416 307.726" stroke="var(--color-A-3,#888888)" fill="none" style="stroke-linecap: round; transform-box: fill-box; transform-origin: 50% 50%; stroke-width: 6px;" transform="matrix(0, -1, 1.000001, 0, -0.000012, -0.000166)"/>
  <path d="M 127.596 307.726 L 420.913 307.726" stroke="var(--color-A-4,#888888)" fill="none" style="stroke-linecap: round; transform-box: fill-box; transform-origin: 50% 50%; stroke-width: 6px;" transform="matrix(0, -1, 1, 0, -0.000006, 0.000022)"/>
  <path d="M 114.093 307.726 L 407.412 307.726" stroke="var(--color-A-5,#888888)" fill="none" style="stroke-linecap: round; transform-box: fill-box; transform-origin: 50% 50%; stroke-width: 6px;" transform="matrix(0, -1, 1, 0, -0.00002, 0.000007)"/>
  <path d="M 100.59 307.726 L 393.907 307.726" stroke="var(--color-A-6,#888888)" fill="none" style="stroke-linecap: round; transform-box: fill-box; transform-origin: 50% 50%; stroke-width: 6px;" transform="matrix(0, -1, 1, 0, -0.000001, 0.000027)"/>
</svg>