<?xml version="1.0" encoding="utf-8"?>
<svg version="1.1" viewBox="0 0 200 500" xmlns="http://www.w3.org/2000/svg">
  <path d="M 20.983 7.4 L 20.983 460.69 C 20.983 467.459 20.983 471.52 21.888 474.228 C 23.404 478.547 26.686 481.95 30.852 483.522 C 32.495 484.143 34.231 484.46 35.981 484.46 C 37.731 484.46 39.467 484.143 41.111 483.522 C 45.277 481.95 48.559 478.547 50.075 474.228 C 50.979 471.52 50.979 467.459 50.979 460.69 L 50.979 7.4 C 50.979 0.631 50.979 -3.43 50.075 -6.138 C 48.559 -10.457 45.277 -13.86 41.111 -15.431 C 39.467 -16.052 37.731 -16.37 35.981 -16.37 C 34.231 -16.37 32.495 -16.052 30.852 -15.431 C 26.686 -13.86 23.404 -10.457 21.888 -6.138 C 20.983 -3.43 20.983 0.631 20.983 7.4 Z" style="fill: rgb(188, 196, 212);" id="path1"/>
  <path d="m 162.682,2.083 c -12.37447,0.2298898 -16.72276,14.349582 -16.31059,24.713605 1.44019,37.234265 1.12609,74.560425 0.23515,111.819545 -2.49563,16.83934 -19.12466,27.66048 -34.98309,29.82157 -29.470946,11.12829 -45.993099,44.9637 -41.29445,75.36192 0,16.77512 0,33.55024 0,50.32536 11.859638,3.89425 33.86692,5.28536 31.03853,-13.39171 0.95411,-22.38644 -3.565311,-45.60934 3.65252,-67.30475 6.68243,-12.82849 21.2769,-18.03106 34.45712,-21.17978 28.22204,-12.25536 43.32469,-45.33927 38.61899,-75.03924 C 177.94366,82.543034 178.8458,47.861163 177.50647,13.208123 175.77732,6.7558442 169.33153,2.0050001 162.682,2.083 Z" clip-path="url(#clipPath8)" style="fill:#bcc4d4" id="path2"/>
  <ellipse style="fill: rgb(255, 255, 255); stroke-width: 11px; stroke-linejoin: round; stroke-linecap: round; stroke: rgb(188, 196, 212);" cx="36.585" cy="116.079" rx="29.882" ry="29.882" id="ellipse2"/>
  <ellipse style="fill: rgb(255, 255, 255); stroke-width: 11px; stroke-linejoin: round; stroke-linecap: round; stroke: rgb(188, 196, 212);" cx="162.65" cy="36.364" rx="29.882" ry="29.882" id="ellipse3"/>
  <ellipse style="fill: rgb(255, 255, 255); stroke-width: 11px; stroke-linejoin: round; stroke-linecap: round; stroke: rgb(188, 196, 212);" cx="36.585" cy="464.14" rx="29.882" ry="29.882" id="ellipse4"/>
  <path d="M 114.178 296.756 C 114.178 313.767 100.387 327.558 83.376 327.558 C 74.182 327.558 65.928 323.53 60.284 317.141 C 54.64 323.529 46.387 327.558 37.192 327.558 C 20.181 327.558 6.39 313.767 6.39 296.756 C 6.39 279.745 20.181 265.954 37.192 265.954 C 46.387 265.954 54.64 269.983 60.284 276.371 C 65.928 269.982 74.182 265.954 83.376 265.954 C 100.387 265.954 114.178 279.745 114.178 296.756 Z" style="fill: rgb(255, 255, 255); stroke-width: 11px; stroke-linejoin: round; stroke-linecap: round; stroke: rgb(188, 196, 212);" id="path4"/>
</svg>