<svg xmlns="http://www.w3.org/2000/svg" width="200" height="200" viewBox="0 0 500 500"><g transform="scale(18.519)"><g transform="translate(1,1)"><g><g transform="translate(3.5,3.5)"><path fill-rule="evenodd" d="M-3.5 0C-3.5 3.5 -3.5 3.5 0 3.5C3.5 3.5 3.5 3.5 3.5 0C3.5 -3.5 3.5 -3.5 0 -3.5C-3.5 -3.5 -3.5 -3.5 -3.5 0ZM-2.5 0L-2.5 -1.5A1 1 0 0 1 -1.5 -2.5L1.5 -2.5A1 1 0 0 1 2.5 -1.5L2.5 1.5A1 1 0 0 1 1.5 2.5L-1.5 2.5A1 1 0 0 1 -2.5 1.5Z" fill="currentColor"/><path fill-rule="evenodd" d="M-1.5 0C-1.5 1.5 -1.5 1.5 0 1.5C1.5 1.5 1.5 1.5 1.5 0C1.5 -1.5 1.5 -1.5 0 -1.5C-1.5 -1.5 -1.5 -1.5 -1.5 0Z" fill="currentColor"/></g></g><g><g transform="translate(21.5,3.5)"><g transform="rotate(90)"><path fill-rule="evenodd" d="M-3.5 0C-3.5 3.5 -3.5 3.5 0 3.5C3.5 3.5 3.5 3.5 3.5 0C3.5 -3.5 3.5 -3.5 0 -3.5C-3.5 -3.5 -3.5 -3.5 -3.5 0ZM-2.5 0L-2.5 -1.5A1 1 0 0 1 -1.5 -2.5L1.5 -2.5A1 1 0 0 1 2.5 -1.5L2.5 1.5A1 1 0 0 1 1.5 2.5L-1.5 2.5A1 1 0 0 1 -2.5 1.5Z" fill="currentColor"/><path fill-rule="evenodd" d="M-1.5 0C-1.5 1.5 -1.5 1.5 0 1.5C1.5 1.5 1.5 1.5 1.5 0C1.5 -1.5 1.5 -1.5 0 -1.5C-1.5 -1.5 -1.5 -1.5 -1.5 0Z" fill="currentColor"/></g></g></g><g><g transform="translate(3.5,21.5)"><g transform="rotate(-90)"><path fill-rule="evenodd" d="M-3.5 0C-3.5 3.5 -3.5 3.5 0 3.5C3.5 3.5 3.5 3.5 3.5 0C3.5 -3.5 3.5 -3.5 0 -3.5C-3.5 -3.5 -3.5 -3.5 -3.5 0ZM-2.5 0L-2.5 -1.5A1 1 0 0 1 -1.5 -2.5L1.5 -2.5A1 1 0 0 1 2.5 -1.5L2.5 1.5A1 1 0 0 1 1.5 2.5L-1.5 2.5A1 1 0 0 1 -2.5 1.5Z" fill="currentColor"/><path fill-rule="evenodd" d="M-1.5 0C-1.5 1.5 -1.5 1.5 0 1.5C1.5 1.5 1.5 1.5 1.5 0C1.5 -1.5 1.5 -1.5 0 -1.5C-1.5 -1.5 -1.5 -1.5 -1.5 0Z" fill="currentColor"/></g></g></g><path fill-rule="evenodd" d="M9 0.45L9 0.55A0.45 0.45 0 0 0 9.45 1L12.55 1A0.45 0.45 0 0 1 13 1.45L13 1.55A0.45 0.45 0 0 1 12.55 2L12.45 2A0.45 0.45 0 0 0 12 2.45L12 2.55A0.45 0.45 0 0 0 12.45 3L12.55 3A0.45 0.45 0 0 0 13 2.55L13 2.45A0.45 0.45 0 0 1 13.45 2L15.55 2A0.45 0.45 0 0 1 16 2.45L16 2.55A0.45 0.45 0 0 1 15.55 3L14.45 3A0.45 0.45 0 0 0 14 3.45L14 4.55A0.45 0.45 0 0 1 13.55 5L11.45 5A0.45 0.45 0 0 1 11 4.55L11 3.45A0.45 0.45 0 0 0 10.55 3L10.45 3A0.45 0.45 0 0 1 10 2.55L10 2.45A0.45 0.45 0 0 0 9.55 2L8.45 2A0.45 0.45 0 0 0 8 2.45L8 7.55A0.45 0.45 0 0 0 8.45 8L8.55 8A0.45 0.45 0 0 0 9 7.55L9 4.45A0.45 0.45 0 0 1 9.45 4L9.55 4A0.45 0.45 0 0 1 10 4.45L10 8.55A0.45 0.45 0 0 0 10.45 9L10.55 9A0.45 0.45 0 0 1 11 9.45L11 9.55A0.45 0.45 0 0 0 11.45 10L11.55 10A0.45 0.45 0 0 1 12 10.45L12 10.55A0.45 0.45 0 0 0 12.45 11L12.55 11A0.45 0.45 0 0 1 13 11.45L13 11.55A0.45 0.45 0 0 1 12.55 12L12.45 12A0.45 0.45 0 0 0 12 12.45L12 17.55A0.45 0.45 0 0 0 12.45 18L12.55 18A0.45 0.45 0 0 0 13 17.55L13 16.45A0.45 0.45 0 0 1 13.45 16L14.55 16A0.45 0.45 0 0 1 15 16.45L15 16.55A0.45 0.45 0 0 0 15.45 17L15.55 17A0.45 0.45 0 0 1 16 17.45L16 19.55A0.45 0.45 0 0 1 15.55 20L15.45 20A0.45 0.45 0 0 1 15 19.55L15 18.45A0.45 0.45 0 0 0 14.55 18L14.45 18A0.45 0.45 0 0 0 14 18.45L14 20.55A0.45 0.45 0 0 0 14.45 21L15.55 21A0.45 0.45 0 0 1 16 21.45L16 21.55A0.45 0.45 0 0 0 16.45 22L16.55 22A0.45 0.45 0 0 1 17 22.45L17 23.55A0.45 0.45 0 0 0 17.45 24L21.55 24A0.45 0.45 0 0 1 22 24.45L22 24.55A0.45 0.45 0 0 0 22.45 25L24.55 25A0.45 0.45 0 0 0 25 24.55L25 24.45A0.45 0.45 0 0 0 24.55 24L24.45 24A0.45 0.45 0 0 1 24 23.55L24 23.45A0.45 0.45 0 0 1 24.45 23L24.55 23A0.45 0.45 0 0 0 25 22.55L25 21.45A0.45 0.45 0 0 0 24.55 21L23.45 21A0.45 0.45 0 0 0 23 21.45L23 21.55A0.45 0.45 0 0 1 22.55 22L22.45 22A0.45 0.45 0 0 0 22 22.45L22 22.55A0.45 0.45 0 0 1 21.55 23L21.45 23A0.45 0.45 0 0 1 21 22.55L21 21.45A0.45 0.45 0 0 1 21.45 21L21.55 21A0.45 0.45 0 0 0 22 20.55L22 19.45A0.45 0.45 0 0 1 22.45 19L24.55 19A0.45 0.45 0 0 0 25 18.55L25 15.45A0.45 0.45 0 0 0 24.55 15L23.45 15A0.45 0.45 0 0 1 23 14.55L23 14.45A0.45 0.45 0 0 0 22.55 14L22.45 14A0.45 0.45 0 0 0 22 14.45L22 14.55A0.45 0.45 0 0 0 22.45 15L22.55 15A0.45 0.45 0 0 1 23 15.45L23 15.55A0.45 0.45 0 0 0 23.45 16L23.55 16A0.45 0.45 0 0 1 24 16.45L24 17.55A0.45 0.45 0 0 1 23.55 18L22.45 18A0.45 0.45 0 0 0 22 18.45L22 18.55A0.45 0.45 0 0 1 21.55 19L21.45 19A0.45 0.45 0 0 1 21 18.55L21 17.45A0.45 0.45 0 0 1 21.45 17L21.55 17A0.45 0.45 0 0 0 22 16.55L22 16.45A0.45 0.45 0 0 0 21.55 16L15.45 16A0.45 0.45 0 0 1 15 15.55L15 15.45A0.45 0.45 0 0 0 14.55 15L14.45 15A0.45 0.45 0 0 1 14 14.55L14 14.45A0.45 0.45 0 0 0 13.55 14L13.45 14A0.45 0.45 0 0 1 13 13.55L13 12.45A0.45 0.45 0 0 1 13.45 12L13.55 12A0.45 0.45 0 0 1 14 12.45L14 12.55A0.45 0.45 0 0 0 14.45 13L15.55 13A0.45 0.45 0 0 1 16 13.45L16 13.55A0.45 0.45 0 0 0 16.45 14L16.55 14A0.45 0.45 0 0 1 17 14.45L17 14.55A0.45 0.45 0 0 0 17.45 15L18.55 15A0.45 0.45 0 0 0 19 14.55L19 14.45A0.45 0.45 0 0 1 19.45 14L19.55 14A0.45 0.45 0 0 1 20 14.45L20 14.55A0.45 0.45 0 0 0 20.45 15L20.55 15A0.45 0.45 0 0 0 21 14.55L21 13.45A0.45 0.45 0 0 1 21.45 13L21.55 13A0.45 0.45 0 0 0 22 12.55L22 12.45A0.45 0.45 0 0 0 21.55 12L18.45 12A0.45 0.45 0 0 1 18 11.55L18 11.45A0.45 0.45 0 0 1 18.45 11L18.55 11A0.45 0.45 0 0 0 19 10.55L19 10.45A0.45 0.45 0 0 1 19.45 10L19.55 10A0.45 0.45 0 0 1 20 10.45L20 10.55A0.45 0.45 0 0 0 20.45 11L20.55 11A0.45 0.45 0 0 0 21 10.55L21 9.45A0.45 0.45 0 0 1 21.45 9L22.55 9A0.45 0.45 0 0 0 23 8.55L23 8.45A0.45 0.45 0 0 0 22.55 8L18.45 8A0.45 0.45 0 0 0 18 8.45L18 8.55A0.45 0.45 0 0 1 17.55 9L17.45 9A0.45 0.45 0 0 0 17 9.45L17 9.55A0.45 0.45 0 0 1 16.55 10L16.45 10A0.45 0.45 0 0 1 16 9.55L16 8.45A0.45 0.45 0 0 1 16.45 8L16.55 8A0.45 0.45 0 0 0 17 7.55L17 6.45A0.45 0.45 0 0 0 16.55 6L16.45 6A0.45 0.45 0 0 1 16 5.55L16 4.45A0.45 0.45 0 0 1 16.45 4L16.55 4A0.45 0.45 0 0 0 17 3.55L17 2.45A0.45 0.45 0 0 0 16.55 2L16.45 2A0.45 0.45 0 0 1 16 1.55L16 1.45A0.45 0.45 0 0 1 16.45 1L16.55 1A0.45 0.45 0 0 0 17 0.55L17 0.45A0.45 0.45 0 0 0 16.55 0L16.45 0A0.45 0.45 0 0 0 16 0.45L16 0.55A0.45 0.45 0 0 1 15.55 1L15.45 1A0.45 0.45 0 0 1 15 0.55L15 0.45A0.45 0.45 0 0 0 14.55 0L14.45 0A0.45 0.45 0 0 0 14 0.45L14 0.55A0.45 0.45 0 0 1 13.55 1L13.45 1A0.45 0.45 0 0 1 13 0.55L13 0.45A0.45 0.45 0 0 0 12.55 0L9.45 0A0.45 0.45 0 0 0 9 0.45ZM14 5.45L14 5.55A0.45 0.45 0 0 1 13.55 6L13.45 6A0.45 0.45 0 0 0 13 6.45L13 6.55A0.45 0.45 0 0 0 13.45 7L13.55 7A0.45 0.45 0 0 1 14 7.45L14 7.55A0.45 0.45 0 0 0 14.45 8L15.55 8A0.45 0.45 0 0 0 16 7.55L16 6.45A0.45 0.45 0 0 0 15.55 6L15.45 6A0.45 0.45 0 0 1 15 5.55L15 5.45A0.45 0.45 0 0 0 14.55 5L14.45 5A0.45 0.45 0 0 0 14 5.45ZM11 6.45L11 7.55A0.45 0.45 0 0 0 11.45 8L11.55 8A0.45 0.45 0 0 0 12 7.55L12 6.45A0.45 0.45 0 0 0 11.55 6L11.45 6A0.45 0.45 0 0 0 11 6.45ZM14 6.45L14 6.55A0.45 0.45 0 0 0 14.45 7L14.55 7A0.45 0.45 0 0 0 15 6.55L15 6.45A0.45 0.45 0 0 0 14.55 6L14.45 6A0.45 0.45 0 0 0 14 6.45ZM0 8.45L0 9.55A0.45 0.45 0 0 0 0.45 10L0.55 10A0.45 0.45 0 0 0 1 9.55L1 8.45A0.45 0.45 0 0 0 0.55 8L0.45 8A0.45 0.45 0 0 0 0 8.45ZM2 8.45L2 9.55A0.45 0.45 0 0 0 2.45 10L2.55 10A0.45 0.45 0 0 1 3 10.45L3 10.55A0.45 0.45 0 0 1 2.55 11L1.45 11A0.45 0.45 0 0 0 1 11.45L1 12.55A0.45 0.45 0 0 1 0.55 13L0.45 13A0.45 0.45 0 0 0 0 13.45L0 16.55A0.45 0.45 0 0 0 0.45 17L0.55 17A0.45 0.45 0 0 0 1 16.55L1 13.45A0.45 0.45 0 0 1 1.45 13L1.55 13A0.45 0.45 0 0 1 2 13.45L2 14.55A0.45 0.45 0 0 0 2.45 15L3.55 15A0.45 0.45 0 0 1 4 15.45L4 16.55A0.45 0.45 0 0 0 4.45 17L6.55 17A0.45 0.45 0 0 0 7 16.55L7 16.45A0.45 0.45 0 0 1 7.45 16L7.55 16A0.45 0.45 0 0 1 8 16.45L8 17.55A0.45 0.45 0 0 0 8.45 18L8.55 18A0.45 0.45 0 0 1 9 18.45L9 18.55A0.45 0.45 0 0 1 8.55 19L8.45 19A0.45 0.45 0 0 0 8 19.45L8 22.55A0.45 0.45 0 0 0 8.45 23L8.55 23A0.45 0.45 0 0 1 9 23.45L9 23.55A0.45 0.45 0 0 1 8.55 24L8.45 24A0.45 0.45 0 0 0 8 24.45L8 24.55A0.45 0.45 0 0 0 8.45 25L9.55 25A0.45 0.45 0 0 0 10 24.55L10 24.45A0.45 0.45 0 0 1 10.45 24L11.55 24A0.45 0.45 0 0 0 12 23.55L12 23.45A0.45 0.45 0 0 1 12.45 23L12.55 23A0.45 0.45 0 0 1 13 23.45L13 23.55A0.45 0.45 0 0 0 13.45 24L14.55 24A0.45 0.45 0 0 0 15 23.55L15 23.45A0.45 0.45 0 0 0 14.55 23L14.45 23A0.45 0.45 0 0 1 14 22.55L14 22.45A0.45 0.45 0 0 0 13.55 22L12.45 22A0.45 0.45 0 0 0 12 22.45L12 22.55A0.45 0.45 0 0 1 11.55 23L11.45 23A0.45 0.45 0 0 1 11 22.55L11 22.45A0.45 0.45 0 0 0 10.55 22L10.45 22A0.45 0.45 0 0 0 10 22.45L10 22.55A0.45 0.45 0 0 1 9.55 23L9.45 23A0.45 0.45 0 0 1 9 22.55L9 20.45A0.45 0.45 0 0 1 9.45 20L9.55 20A0.45 0.45 0 0 1 10 20.45L10 20.55A0.45 0.45 0 0 0 10.45 21L10.55 21A0.45 0.45 0 0 0 11 20.55L11 20.45A0.45 0.45 0 0 1 11.45 20L11.55 20A0.45 0.45 0 0 1 12 20.45L12 20.55A0.45 0.45 0 0 0 12.45 21L12.55 21A0.45 0.45 0 0 0 13 20.55L13 19.45A0.45 0.45 0 0 0 12.55 19L11.45 19A0.45 0.45 0 0 1 11 18.55L11 17.45A0.45 0.45 0 0 0 10.55 17L10.45 17A0.45 0.45 0 0 1 10 16.55L10 16.45A0.45 0.45 0 0 1 10.45 16L10.55 16A0.45 0.45 0 0 0 11 15.55L11 15.45A0.45 0.45 0 0 0 10.55 15L10.45 15A0.45 0.45 0 0 1 10 14.55L10 14.45A0.45 0.45 0 0 1 10.45 14L10.55 14A0.45 0.45 0 0 0 11 13.55L11 13.45A0.45 0.45 0 0 0 10.55 13L9.45 13A0.45 0.45 0 0 0 9 13.45L9 13.55A0.45 0.45 0 0 1 8.55 14L5.45 14A0.45 0.45 0 0 0 5 14.45L5 14.55A0.45 0.45 0 0 1 4.55 15L4.45 15A0.45 0.45 0 0 1 4 14.55L4 12.45A0.45 0.45 0 0 0 3.55 12L3.45 12A0.45 0.45 0 0 1 3 11.55L3 11.45A0.45 0.45 0 0 1 3.45 11L3.55 11A0.45 0.45 0 0 0 4 10.55L4 10.45A0.45 0.45 0 0 0 3.55 10L3.45 10A0.45 0.45 0 0 1 3 9.55L3 9.45A0.45 0.45 0 0 1 3.45 9L4.55 9A0.45 0.45 0 0 1 5 9.45L5 10.55A0.45 0.45 0 0 0 5.45 11L6.55 11A0.45 0.45 0 0 1 7 11.45L7 11.55A0.45 0.45 0 0 1 6.55 12L5.45 12A0.45 0.45 0 0 0 5 12.45L5 12.55A0.45 0.45 0 0 0 5.45 13L6.55 13A0.45 0.45 0 0 0 7 12.55L7 12.45A0.45 0.45 0 0 1 7.45 12L7.55 12A0.45 0.45 0 0 0 8 11.55L8 10.45A0.45 0.45 0 0 0 7.55 10L6.45 10A0.45 0.45 0 0 1 6 9.55L6 9.45A0.45 0.45 0 0 1 6.45 9L6.55 9A0.45 0.45 0 0 0 7 8.55L7 8.45A0.45 0.45 0 0 0 6.55 8L2.45 8A0.45 0.45 0 0 0 2 8.45ZM12 9.45L12 9.55A0.45 0.45 0 0 0 12.45 10L13.55 10A0.45 0.45 0 0 0 14 9.55L14 9.45A0.45 0.45 0 0 0 13.55 9L12.45 9A0.45 0.45 0 0 0 12 9.45ZM18 9.45L18 9.55A0.45 0.45 0 0 0 18.45 10L18.55 10A0.45 0.45 0 0 0 19 9.55L19 9.45A0.45 0.45 0 0 0 18.55 9L18.45 9A0.45 0.45 0 0 0 18 9.45ZM24 9.45L24 9.55A0.45 0.45 0 0 0 24.45 10L24.55 10A0.45 0.45 0 0 0 25 9.55L25 9.45A0.45 0.45 0 0 0 24.55 9L24.45 9A0.45 0.45 0 0 0 24 9.45ZM9 10.45L9 11.55A0.45 0.45 0 0 0 9.45 12L10.55 12A0.45 0.45 0 0 0 11 11.55L11 11.45A0.45 0.45 0 0 0 10.55 11L10.45 11A0.45 0.45 0 0 1 10 10.55L10 10.45A0.45 0.45 0 0 0 9.55 10L9.45 10A0.45 0.45 0 0 0 9 10.45ZM22 10.45L22 10.55A0.45 0.45 0 0 0 22.45 11L22.55 11A0.45 0.45 0 0 0 23 10.55L23 10.45A0.45 0.45 0 0 0 22.55 10L22.45 10A0.45 0.45 0 0 0 22 10.45ZM14 11.45L14 11.55A0.45 0.45 0 0 0 14.45 12L15.55 12A0.45 0.45 0 0 1 16 12.45L16 12.55A0.45 0.45 0 0 0 16.45 13L16.55 13A0.45 0.45 0 0 1 17 13.45L17 13.55A0.45 0.45 0 0 0 17.45 14L18.55 14A0.45 0.45 0 0 0 19 13.55L19 13.45A0.45 0.45 0 0 0 18.55 13L17.45 13A0.45 0.45 0 0 1 17 12.55L17 12.45A0.45 0.45 0 0 0 16.55 12L16.45 12A0.45 0.45 0 0 1 16 11.55L16 11.45A0.45 0.45 0 0 0 15.55 11L14.45 11A0.45 0.45 0 0 0 14 11.45ZM23 12.45L23 12.55A0.45 0.45 0 0 0 23.45 13L23.55 13A0.45 0.45 0 0 1 24 13.45L24 13.55A0.45 0.45 0 0 0 24.45 14L24.55 14A0.45 0.45 0 0 0 25 13.55L25 12.45A0.45 0.45 0 0 0 24.55 12L23.45 12A0.45 0.45 0 0 0 23 12.45ZM5 15.45L5 15.55A0.45 0.45 0 0 0 5.45 16L6.55 16A0.45 0.45 0 0 0 7 15.55L7 15.45A0.45 0.45 0 0 0 6.55 15L5.45 15A0.45 0.45 0 0 0 5 15.45ZM2 16.45L2 16.55A0.45 0.45 0 0 0 2.45 17L2.55 17A0.45 0.45 0 0 0 3 16.55L3 16.45A0.45 0.45 0 0 0 2.55 16L2.45 16A0.45 0.45 0 0 0 2 16.45ZM9 17.45L9 17.55A0.45 0.45 0 0 0 9.45 18L9.55 18A0.45 0.45 0 0 0 10 17.55L10 17.45A0.45 0.45 0 0 0 9.55 17L9.45 17A0.45 0.45 0 0 0 9 17.45ZM17 17.45L17 19.55A0.45 0.45 0 0 0 17.45 20L19.55 20A0.45 0.45 0 0 0 20 19.55L20 17.45A0.45 0.45 0 0 0 19.55 17L17.45 17A0.45 0.45 0 0 0 17 17.45ZM18 18.45L18 18.55A0.45 0.45 0 0 0 18.45 19L18.55 19A0.45 0.45 0 0 0 19 18.55L19 18.45A0.45 0.45 0 0 0 18.55 18L18.45 18A0.45 0.45 0 0 0 18 18.45ZM17 21.45L17 21.55A0.45 0.45 0 0 0 17.45 22L18.55 22A0.45 0.45 0 0 1 19 22.45L19 22.55A0.45 0.45 0 0 0 19.45 23L19.55 23A0.45 0.45 0 0 0 20 22.55L20 21.45A0.45 0.45 0 0 0 19.55 21L17.45 21A0.45 0.45 0 0 0 17 21.45ZM23 22.45L23 22.55A0.45 0.45 0 0 1 22.55 23L22.45 23A0.45 0.45 0 0 0 22 23.45L22 23.55A0.45 0.45 0 0 0 22.45 24L22.55 24A0.45 0.45 0 0 0 23 23.55L23 23.45A0.45 0.45 0 0 1 23.45 23L23.55 23A0.45 0.45 0 0 0 24 22.55L24 22.45A0.45 0.45 0 0 0 23.55 22L23.45 22A0.45 0.45 0 0 0 23 22.45Z" fill="currentColor"/></g></g></svg>
