<?xml version="1.0" encoding="utf-8"?>
<svg width="80" height="80" viewBox="0 0 80 80" xmlns="http://www.w3.org/2000/svg">
  <path d="M 64.656 43.916 L 64.656 59.708 L 68.318 59.708 L 60.376 68.476 L 52.434 59.708 L 56.096 59.708 L 56.096 43.678 L 63.656 43.678 L 64.656 43.916 Z" style="fill: currentcolor; stroke-width: 1; transform-origin: 60.376px 56.077px;" transform="matrix(0, -1, 1, 0, 0, 0.000005)"/>
  <path d="M 64.656 11.914 L 64.656 27.706 L 68.318 27.706 L 60.376 36.474 L 52.434 27.706 L 56.096 27.706 L 56.096 11.676 L 63.656 11.676 L 64.656 11.914 Z" style="fill: currentcolor; stroke-width: 1; transform-origin: 60.376px 24.075px;" transform="matrix(0, -1, 1, 0, 0.000003, 0.000002)"/>
  <rect style="fill: currentColor;" x="24" y="9" width="32" height="64" rx="16" ry="16"/>
  <ellipse style="fill: var(--svg-inner-bg)" cx="40" cy="25" rx="14" ry="14"/>
  <ellipse style="fill: var(--svg-inner-bg)" cx="40" cy="57" rx="14" ry="14"/>
  <use href="#DEBT_ICON" width="24" height="24" transform="matrix(1, 0, 0, 1, 28, 13)"/>
  <use href="#COLLATERAL_ICON" width="24" height="24" transform="matrix(1, 0, 0, 1, 28, 45)"/>
</svg>