<?xml version="1.0" encoding="utf-8"?>
<svg width="80" height="80" viewBox="0 0 80 80" xmlns="http://www.w3.org/2000/svg" xmlns:bx="https://boxy-svg.com">
  <use href="#DEBT_ICON" width="22" height="22" transform="matrix(1, 0, 0, 1, 29, 13)"/>
  <path style="fill: rgb(18, 183, 0); stroke-linecap: round;" transform="matrix(0.06436, 0, 0, 0.06436, 13.410096, 7.739542)" d="M 692.704 277.145 L 723.507 277.145 L 730.008 324.192 A 81.829 81.829 0 0 1 748.369 331.797 L 786.233 303.126 L 808.014 324.908 L 779.343 362.772 A 81.829 81.829 0 0 1 786.949 381.133 L 833.996 387.633 L 833.996 418.437 L 786.949 424.937 A 81.829 81.829 0 0 1 779.343 443.299 L 808.014 481.163 L 786.233 502.944 L 748.369 474.273 A 81.829 81.829 0 0 1 730.008 481.878 L 723.507 528.926 L 692.704 528.926 L 686.203 481.878 A 81.829 81.829 0 0 1 667.842 474.273 L 629.978 502.944 L 608.197 481.163 L 636.868 443.299 A 81.829 81.829 0 0 1 629.262 424.937 L 582.215 418.437 L 582.215 387.633 L 629.262 381.133 A 81.829 81.829 0 0 1 636.868 362.772 L 608.197 324.908 L 629.978 303.126 L 667.842 331.797 A 81.829 81.829 0 0 1 686.203 324.192 Z M 708.105 365.268 A 37.767 37.767 0 0 0 708.105 440.802 A 37.767 37.767 0 0 0 708.105 365.268" bx:shape="cog 708.105 403.035 37.767 81.829 125.891 0.38 8 1@ffc95b2a"/>
</svg>