<?xml version="1.0" encoding="utf-8"?>
<svg width="80" height="80" viewBox="0 0 80 80" xmlns="http://www.w3.org/2000/svg">
  <rect x="-17.085" y="-0.513" width="109.144" height="61.184" style="fill: rgba(0, 0, 0, 0);"/>
  <circle cx="14.901" cy="32.386" r="12.791" fill="var(--svg-inner-bg)" style="stroke-width: 1.407;"/>
  <circle cx="37.675" cy="25.861" r="12.791" fill="var(--svg-inner-bg)" style="stroke-width: 1.407;" transform="matrix(1, 0, 0, 0.859958, 0, 9.830353)"/>
  <circle cx="60.879" cy="32.542" r="14.785" fill="var(--svg-inner-bg)" style="stroke-width: 1.407;"/>
  <circle cx="37.43" cy="28.645" r="2.065" style="fill-rule: evenodd; fill: none; stroke-width: 1; stroke: rgb(102, 113, 130);"/>
  <line x1="35.365" y1="36.491" x2="45.275" y2="26.58" stroke-linecap="round" style="stroke-width: 1; stroke: rgb(102, 113, 130);"/>
  <circle cx="43.21" cy="34.426" r="2.065" style="fill-rule: evenodd; fill: none; stroke-width: 1; stroke: rgb(102, 113, 130);"/>
  <g transform="matrix(1, 0, 0, 1, 51, 20)">
    <ellipse style="fill: rgb(216, 216, 216); stroke-width: 1;" cx="12" cy="12" rx="12" ry="12"/>
    <use href="#DEBT_ICON" width="24" height="24"/>
  </g>
  <g transform="matrix(1, 0, 0, 1, 8, 25.5)">
    <ellipse style="fill: rgb(216, 216, 216); " cx="7" cy="7" rx="7" ry="7"/>
    <use href="#DEBT_ICON" width="14" height="14"/>
  </g>
  <g transform="matrix(1, 0, 0, 1, 0.036152, 12.599815)"/>
  <line x1="27" x2="33" y1="32" y2="32" stroke-width="2" style="stroke-linecap: round; stroke-width: 1; stroke: rgb(102, 113, 130);"/>
  <line x1="30" x2="30" y1="29" y2="35" stroke-width="2" style="stroke-linecap: round; stroke-width: 1; stroke: rgb(102, 113, 130);"/>
</svg>