<?xml version="1.0" encoding="utf-8"?>
<svg width="80" height="80" viewBox="0 0 80 80" xmlns="http://www.w3.org/2000/svg" xmlns:bx="https://boxy-svg.com">
  <circle cx="40" cy="28" r="18" fill="var(--svg-inner-bg)" stroke="none" style="stroke-width: 2px;" transform="matrix(1, 0, 0, 0.916667, 0, 0.833333)"/>
  <path d="M 44.429 35.507 L 44.429 33.303 C 44.429 30.869 42.454 28.895 40.02 28.895 L 33.408 28.895 C 30.974 28.895 29 30.869 29 33.303 L 29 35.507" style="stroke: currentColor; stroke-linecap: round; fill: none; stroke-width: 2px;"/>
  <path d="M 43.341 17.137 C 46.537 17.967 47.639 21.944 45.322 24.298 C 44.777 24.853 44.093 25.247 43.341 25.442" style="stroke: currentColor; stroke-linecap: round; fill: none; stroke-width: 2px;"/>
  <path d="M 50 35.507 L 50 33.303 C 49.998 31.293 48.639 29.54 46.695 29.038" style="stroke: currentColor; stroke-linecap: round; fill: none; stroke-width: 2px;"/>
  <circle cx="36.847" cy="21.29" r="4.29" style="stroke: currentColor; stroke-linecap: round; fill: none; stroke-width: 2px;"/>
  <path d="M 16 21.4 H 30 L 30 18 L 38 23 L 30 28 L 30 24.6 H 16 V 21.4 Z" bx:shape="arrow 16 18 22 10 3.2 8 0 1@d78f9eee" style="stroke-linecap: round; stroke-linejoin: round; stroke: rgb(255, 0, 0); fill: rgb(255, 0, 0); transform-box: fill-box; transform-origin: 50% 50%;" transform="matrix(0, 1, -1, 0, 41.999985, 4.999997)"/>
</svg>