<?xml version="1.0" encoding="utf-8"?>
<svg width="80" height="80" viewBox="0 0 80 80" xmlns="http://www.w3.org/2000/svg">
  <circle cx="40" cy="28" r="18" fill="var(--svg-inner-bg)" stroke="currentColor" style="stroke-width: 2px;"/>
  <path d="M 44.429 35.507 L 44.429 33.303 C 44.429 30.869 42.454 28.895 40.02 28.895 L 33.408 28.895 C 30.974 28.895 29 30.869 29 33.303 L 29 35.507" style="stroke: currentColor; stroke-linecap: round; fill: none; stroke-width: 2px;"/>
  <path d="M 43.341 17.137 C 46.537 17.967 47.639 21.944 45.322 24.298 C 44.777 24.853 44.093 25.247 43.341 25.442" style="stroke: currentColor; stroke-linecap: round; fill: none; stroke-width: 2px;"/>
  <path d="M 50 35.507 L 50 33.303 C 49.998 31.293 48.639 29.54 46.695 29.038" style="stroke: currentColor; stroke-linecap: round; fill: none; stroke-width: 2px;"/>
  <circle cx="36.847" cy="21.29" r="4.29" style="stroke: currentColor; stroke-linecap: round; fill: none; stroke-width: 2px;"/>
  <circle cx="18" cy="28" r="7" fill="var(--svg-inner-bg)" stroke="green" style="stroke-width: 2px;"/>
  <line x1="14" x2="22" y1="28" y2="28" stroke="green" stroke-width="2" style="stroke-linecap: round;"/>
  <line x1="18" x2="18" y1="24" y2="32" stroke="green" stroke-width="2" style="stroke-linecap: round;"/>
</svg>