<?xml version="1.0" encoding="utf-8"?>
<svg width="80" height="80" viewBox="0 0 80 80" xmlns="http://www.w3.org/2000/svg">
  <circle cx="40" cy="28" r="18" fill="var(--svg-inner-bg)" stroke="currentColor" style="stroke-width: 2px;"/>
  <path d="M 29.987 31.311 C 29.849 31.311 29.728 31.218 29.693 31.084 C 29.448 30.164 29.325 29.214 29.325 28.262 C 29.325 22.305 34.089 17.438 40.009 17.276 L 40.009 14.885 C 40.009 14.767 40.077 14.661 40.18 14.61 C 40.285 14.559 40.41 14.572 40.503 14.644 L 47.482 20.098 C 47.555 20.155 47.598 20.245 47.598 20.338 C 47.598 20.432 47.555 20.521 47.482 20.579 L 40.502 26.033 C 40.41 26.104 40.285 26.117 40.18 26.067 C 40.076 26.016 40.009 25.91 40.009 25.793 L 40.009 23.375 C 35.434 23.508 31.459 26.641 30.282 31.084 C 30.246 31.218 30.126 31.311 29.987 31.311 Z" style="stroke: none; stroke-width: 1; stroke-dasharray: none; stroke-linecap: butt; stroke-linejoin: miter; stroke-miterlimit: 10; fill-rule: nonzero; opacity: 1; fill: rgb(255, 10, 10);" stroke-linecap="round"/>
  <path d="M 37.931 41.663 C 37.851 41.663 37.772 41.637 37.707 41.586 L 29.38 35.078 C 29.292 35.009 29.24 34.903 29.24 34.792 C 29.24 34.68 29.292 34.574 29.38 34.505 L 37.707 27.997 C 37.816 27.912 37.965 27.896 38.09 27.957 C 38.215 28.018 38.295 28.145 38.295 28.284 L 38.295 31.168 C 43.754 31.009 48.496 27.272 49.901 21.97 C 49.943 21.811 50.087 21.7 50.253 21.7 C 50.417 21.7 50.562 21.811 50.604 21.97 C 50.895 23.068 51.042 24.201 51.042 25.338 C 51.042 32.447 45.356 38.252 38.294 38.446 L 38.294 41.299 C 38.294 41.438 38.215 41.565 38.09 41.626 C 38.039 41.651 37.985 41.663 37.931 41.663 Z" style="stroke: none; stroke-width: 1; stroke-dasharray: none; stroke-linecap: butt; stroke-linejoin: miter; stroke-miterlimit: 10; fill-rule: nonzero; opacity: 1; fill: rgb(0, 255, 31);" stroke-linecap="round"/>
  <g style="stroke: none; stroke-width: 0; stroke-dasharray: none; stroke-linecap: butt; stroke-linejoin: miter; stroke-miterlimit: 10; fill: none; fill-rule: nonzero; opacity: 1;" transform="matrix(0.371257, 0, 0, 0.272634, 21.406218, 14.82444)"/>
  <g style="stroke: none; stroke-width: 0; stroke-dasharray: none; stroke-linecap: butt; stroke-linejoin: miter; stroke-miterlimit: 10; fill: none; fill-rule: nonzero; opacity: 1;" transform="matrix(0.371257, 0, 0, 0.272634, 21.406218, 14.82444)"/>
</svg>